<svg width="24" height="25" viewBox="0 0 24 25" fill="none" xmlns="http://www.w3.org/2000/svg">
<path fill-rule="evenodd" clip-rule="evenodd" d="M12 0.78125C5.38149 0.78125 0.020813 6.14193 0.020813 12.7604C0.020813 18.0612 3.44985 22.5384 8.21157 24.1256C8.81053 24.2305 9.03514 23.8711 9.03514 23.5566C9.03514 23.2721 9.02016 22.3288 9.02016 21.3255C6.0104 21.8796 5.23175 20.5918 4.99217 19.918C4.8574 19.5736 4.27342 18.5104 3.7643 18.2259C3.34503 18.0013 2.74607 17.4473 3.74933 17.4323C4.69269 17.4173 5.36652 18.3008 5.59113 18.6602C6.66925 20.472 8.39126 19.9629 9.08006 19.6484C9.18488 18.8698 9.49933 18.3457 9.84373 18.0462C7.17837 17.7467 4.39321 16.7135 4.39321 12.1315C4.39321 10.8288 4.8574 9.75065 5.62107 8.91211C5.50128 8.61263 5.08201 7.38476 5.74086 5.73763C5.74086 5.73763 6.74412 5.42318 9.03514 6.96549C9.99347 6.69596 11.0117 6.5612 12.0299 6.5612C13.0482 6.5612 14.0664 6.69596 15.0247 6.96549C17.3157 5.4082 18.319 5.73763 18.319 5.73763C18.9778 7.38476 18.5586 8.61263 18.4388 8.91211C19.2025 9.75065 19.6666 10.8138 19.6666 12.1315C19.6666 16.7285 16.8665 17.7467 14.2012 18.0462C14.6354 18.4206 15.0097 19.1393 15.0097 20.2624C15.0097 21.8646 14.9948 23.1523 14.9948 23.5566C14.9948 23.8711 15.2194 24.2454 15.8183 24.1256C20.5501 22.5384 23.9791 18.0462 23.9791 12.7604C23.9791 6.14193 18.6185 0.78125 12 0.78125V0.78125Z" fill="black"/>
</svg>
