<svg width="26" height="25" viewBox="0 0 26 25" fill="none" xmlns="http://www.w3.org/2000/svg">
<path fill-rule="evenodd" clip-rule="evenodd" d="M2.34766 0C1.32754 0 0.5 0.802344 0.5 1.79082V23.2098C0.5 24.1983 1.32764 25 2.34766 25H23.6523C24.6729 25 25.5 24.1982 25.5 23.2095V1.79082C25.5 0.802344 24.6729 0 23.6523 0H2.34766ZM8.09702 9.66667V20.9218H4.35601V9.66667H8.09702ZM8.3436 6.18591C8.3436 7.26599 7.53159 8.13025 6.22729 8.13025L6.227 8.13015H6.20278C4.94722 8.13015 4.1355 7.26589 4.1355 6.18582C4.1355 5.08123 4.97173 4.24109 6.2521 4.24109C7.53159 4.24109 8.31919 5.08123 8.3436 6.18591ZM13.9084 20.9218H10.1677L10.1676 20.9221C10.1676 20.9221 10.2167 10.7229 10.1679 9.66707H13.9087V11.2602C14.406 10.4934 15.296 9.40281 17.2803 9.40281C19.7416 9.40281 21.5869 11.0115 21.5869 14.4684V20.9218H17.8462V14.9012C17.8462 13.3881 17.3045 12.356 15.9512 12.356C14.9175 12.356 14.302 13.052 14.0317 13.7244C13.9329 13.9643 13.9084 14.3011 13.9084 14.6371V20.9218Z" fill="black"/>
</svg>
