<svg width="258" height="258" viewBox="0 0 258 258" fill="none" xmlns="http://www.w3.org/2000/svg">
<path fill-rule="evenodd" clip-rule="evenodd" d="M10 10H248V248H10V10ZM0 0H10H248H258V10V248V258H248H10H0V248V10V0ZM81.25 178.188C84.5417 178.188 86.9167 178.021 88.375 177.688V168.812C86.875 169.312 84.1667 169.562 80.25 169.562C76.3333 169.562 73.5417 168.354 71.875 165.938C70.9583 164.562 70.5 161.833 70.5 157.75V151.25C70.5 143.125 69.5 137.021 67.5 132.938C65.5833 128.979 62.1875 125.958 57.3125 123.875V122.688C62.2292 120.562 65.625 117.625 67.5 113.875C69.5 109.875 70.5 103.854 70.5 95.8125V89.3125C70.5 85.2292 71.0625 82.3542 72.1875 80.6875C72.8958 79.6458 73.9583 78.8542 75.375 78.3125C76.7917 77.7708 78.9375 77.5 81.8125 77.5C84.6875 77.5 86.875 77.75 88.375 78.25V69.375C86.9167 69.0417 84.6875 68.875 81.6875 68.875C74.9792 68.875 69.9167 70.0208 66.5 72.3125C64.9167 73.3958 63.6667 74.6667 62.75 76.125C61.875 77.5833 61.1667 79.3125 60.625 81.3125C60.125 83.2708 59.875 86.6667 59.875 91.5V95.3125C59.875 104.771 58.5417 111.167 55.875 114.5C53.5417 117.417 49.3125 118.875 43.1875 118.875H38.75V127.938H43.1875C49.2708 127.938 53.5 129.438 55.875 132.438C58.5417 135.812 59.875 142.25 59.875 151.75V155.562C59.875 160.396 60.1667 163.958 60.75 166.25C61.2083 167.917 61.875 169.479 62.75 170.938C63.6667 172.396 64.9167 173.667 66.5 174.75C68.125 175.833 70.1667 176.667 72.625 177.25C75.0833 177.875 77.9583 178.188 81.25 178.188ZM120.781 98.9141C122.969 100.664 125.703 101.539 128.984 101.539C132.32 101.539 135.082 100.664 137.27 98.9141C139.457 97.1094 140.551 94.5391 140.551 91.2031C140.551 87.8125 139.457 85.2148 137.27 83.4102C135.082 81.6055 132.32 80.7031 128.984 80.7031C125.703 80.7031 122.969 81.6055 120.781 83.4102C118.648 85.2148 117.582 87.8125 117.582 91.2031C117.582 94.5391 118.648 97.1094 120.781 98.9141ZM138.582 151.742H122.75V167C122.75 170.062 122.531 172.742 122.094 175.039C120.891 181.875 116.844 185.293 109.953 185.293V198.828C120.344 198.828 127.836 196.039 132.43 190.461C136.531 185.43 138.582 177.609 138.582 167V151.742ZM172.008 168.812V177.688C173.466 178.021 175.841 178.188 179.133 178.188C182.424 178.188 185.299 177.875 187.758 177.25C190.216 176.667 192.237 175.833 193.82 174.75C195.445 173.667 196.695 172.396 197.57 170.938C198.487 169.479 199.174 167.917 199.633 166.25C200.216 163.958 200.508 160.396 200.508 155.562V151.75C200.508 142.25 201.841 135.812 204.508 132.438C206.883 129.438 211.112 127.938 217.195 127.938H221.633V118.875H217.195C211.07 118.875 206.841 117.417 204.508 114.5C201.841 111.167 200.508 104.771 200.508 95.3125V91.5C200.508 86.6667 200.237 83.2708 199.695 81.3125C199.195 79.3125 198.487 77.5833 197.57 76.125C196.695 74.6667 195.466 73.3958 193.883 72.3125C190.466 70.0208 185.404 68.875 178.695 68.875C175.695 68.875 173.466 69.0417 172.008 69.375V78.25C173.508 77.75 175.695 77.5 178.57 77.5C181.445 77.5 183.591 77.7708 185.008 78.3125C186.424 78.8542 187.487 79.6458 188.195 80.6875C189.32 82.3542 189.883 85.2292 189.883 89.3125V95.8125C189.883 103.854 190.883 109.875 192.883 113.875C194.758 117.625 198.154 120.562 203.07 122.688V123.875C198.195 125.958 194.799 128.979 192.883 132.938C190.883 137.021 189.883 143.125 189.883 151.25V157.75C189.883 161.833 189.424 164.562 188.508 165.938C186.841 168.354 184.049 169.562 180.133 169.562C176.216 169.562 173.508 169.312 172.008 168.812Z" fill="black"/>
</svg>
